<?xml version="1.0" encoding="utf-8"?>
<!-- Generator: Adobe Illustrator 16.0.0, SVG Export Plug-In . SVG Version: 6.00 Build 0)  -->
<!DOCTYPE svg PUBLIC "-//W3C//DTD SVG 1.1//EN" "http://www.w3.org/Graphics/SVG/1.1/DTD/svg11.dtd">
<svg version="1.1" id="Capa_1" xmlns="http://www.w3.org/2000/svg" xmlns:xlink="http://www.w3.org/1999/xlink" x="0px" y="0px"
	 width="1600px" height="900px" viewBox="0 0 1600 900" enable-background="new 0 0 1600 900" xml:space="preserve">
<g transform="translate(0.000000,900.000000) scale(0.100000,-0.100000)">
	<path fill="#FFF8DC" d="M7527.001,7839.999c-1099.003-86.001-2085-641.001-2715-1527.002
		C4459.003,5816,4247.998,5275,4162.998,4650c-25.996-190-25-727.002,1.006-910c87.998-624.004,290.996-1150,628.994-1632.002
		c236.006-335.996,566.006-667.002,900-900.996c435-305,955-520,1472.002-606.006c237.998-40,325-45.996,630-45.996
		c327.998,0,439.004,10,717.998,65.996c1257.002,252.002,2299.004,1162.002,2721.006,2378.008
		c277.998,800,268.994,1668.994-26.006,2470.996c-63.994,173.999-225,500-327.998,663.999c-595.996,945-1570.996,1560-2680,1691
		C8037.997,7843.998,7677.001,7852.001,7527.001,7839.999z M8369.999,5577.998c0-501.997,2.002-580,14.004-567.998
		c7.998,7.998,75.996,102.998,151.992,210c76.006,107.002,220,312.002,321.006,455c100.996,142.998,187.002,261.001,192.002,262.998
		c3.994,1.001,17.998-5.996,30.996-15.996l22.998-19.004l-402.998-573.999c-222.002-316.001-447.002-634.995-499.004-708.999
		c-52.998-75-347.998-494.004-655.996-932.998C7237.001,3249.003,6982.998,2890,6980,2890s-17.002,10-32.002,22.998L6920.996,2935
		l615,870c339.004,479.004,624.004,884.004,635,900c18.008,29.004,19.004,57.002,19.004,597.998
		c0,312.002-2.998,567.002-7.002,567.002c-5-1.001-152.002-251.001-327.998-557.998C7679.003,5006,7440.996,4592.998,7325.996,4395
		c-113.994-197.998-215.996-372.998-225-390c-8.994-15.996-51.992-92.002-95-167.998l-78.994-139.004l-31.006,49.004
		C6879.003,3774.003,6595,4262.998,6265,4832.998L5665,5870l-5-1472.998L5655,2925l-92.002-2.998l-92.998-2.998v207.998
		c0,113.994-0.996,840-2.002,1612.998L5465,6145h129.004h127.998l190-330c287.002-497.998,598.994-1042.002,810-1410
		c103.994-180.996,192.998-332.998,195.996-337.002c7.002-7.002,552.998,929.004,687.001,1176.001
		c32.998,61.001,74.004,132.002,90,157.002c17.002,25,122.002,206.001,235,401.997l205,357.002h117.998h117.002V5577.998z
		 M9387.001,5428.999c197.002-53.999,425.996-181.001,597.002-331.001l38.994-33.999l-73.994-61.997L9874.999,4941l-35,32.998
		c-122.998,118.003-445.996,273.003-637.998,308.003c-37.002,5.996-67.998,12.998-70,13.999s22.002,36.001,52.998,77.998
		C9249.999,5462.001,9257.001,5463.999,9387.001,5428.999z M8999.003,4455c153.994-37.002,306.992-157.998,375-297.002
		c55-112.002,65.996-170.996,65.996-345V3660h274.004c150.996,0,280.996-2.998,290-5.996c13.994-6.006,15.996-63.008,15.996-544.004
		v-537.002l-52.002-50c-230-215.996-547.998-360.996-882.002-402.998c-138.994-17.998-412.998-7.998-540.996,20
		c-442.002,95-807.002,337.002-1045.996,694.004c-35,51.992-58.008,95-54.004,103.994c7.998,22.998,97.998,142.002,105.996,142.002
		c4.004,0,22.002-25,39.004-55c80-140,235-310,380.996-417.002c440-325,1008.008-397.002,1513.008-192.998
		c105,42.002,256.992,127.002,320.996,179.004l30,23.994v419.004V3455l-782.998,2.998L8269.003,3460l2.998,292.998l2.998,292.998
		l37.002,75c82.002,166.006,237.998,293.008,412.998,335C8794.999,4472.998,8922.997,4472.998,8999.003,4455z"/>
	<path fill="#FFF8DC" d="M8779.999,4269.003c-77.002-15-165-65-217.998-123.008c-89.004-97.998-115-186.992-110-375.996l2.998-105
		l394.004-2.998l392.998-2.002l-2.998,162.998c-4.004,160-4.004,162.998-37.002,227.002c-37.002,75-61.006,104.004-125,152.998
		C9000.995,4260.996,8875.995,4289.003,8779.999,4269.003z"/>
</g>
</svg>
